<?xml version="1.0" encoding="UTF-8" standalone="no"?>
<!DOCTYPE svg PUBLIC "-//W3C//DTD SVG 1.1//EN"
 "http://www.w3.org/Graphics/SVG/1.1/DTD/svg11.dtd">
<!-- Generated by graphviz version 2.47.0 (20210316.0004)
 -->
<!-- Title: dependencies Pages: 1 -->
<svg width="504pt" height="287pt"
 viewBox="0.00 0.00 504.00 287.00" xmlns="http://www.w3.org/2000/svg" xmlns:xlink="http://www.w3.org/1999/xlink">
<g id="graph0" class="graph" transform="scale(1 1) rotate(0) translate(4 283)">
<title>dependencies</title>
<polygon fill="white" stroke="transparent" points="-4,4 -4,-283 500,-283 500,4 -4,4"/>
<text text-anchor="start" x="227.01" y="-42.4" font-family="Times-12" font-weight="bold" font-size="14.00">Legend</text>
<polygon fill="#ffffb3" stroke="transparent" points="14,-10 14,-30 34,-30 34,-10 14,-10"/>
<text text-anchor="start" x="37.63" y="-15.4" font-family="Times-12" font-size="14.00"> &#160;Declarations</text>
<polygon fill="#8dd3c7" stroke="transparent" points="127,-10 127,-30 147,-30 147,-10 127,-10"/>
<text text-anchor="start" x="150.73" y="-15.4" font-family="Times-12" font-size="14.00"> &#160;Module</text>
<polygon fill="#80b1d3" stroke="transparent" points="213,-10 213,-30 233,-30 233,-10 213,-10"/>
<text text-anchor="start" x="236.78" y="-15.4" font-family="Times-12" font-size="14.00"> &#160;Bootstrap</text>
<polygon fill="#fdb462" stroke="transparent" points="310,-10 310,-30 330,-30 330,-10 310,-10"/>
<text text-anchor="start" x="333.67" y="-15.4" font-family="Times-12" font-size="14.00"> &#160;Providers</text>
<polygon fill="#fb8072" stroke="transparent" points="406,-10 406,-30 426,-30 426,-10 406,-10"/>
<text text-anchor="start" x="429.73" y="-15.4" font-family="Times-12" font-size="14.00"> &#160;Exports</text>
<g id="clust1" class="cluster">
<title>cluster_AppModule</title>
<polygon fill="none" stroke="black" stroke-dasharray="1,5" points="49.5,-146 49.5,-271 433.5,-271 433.5,-146 49.5,-146"/>
</g>
<g id="clust3" class="cluster">
<title>cluster_AppModule_imports</title>
<polygon fill="none" stroke="black" points="321.5,-154 321.5,-206 425.5,-206 425.5,-154 321.5,-154"/>
</g>
<g id="clust6" class="cluster">
<title>cluster_AppModule_providers</title>
<polygon fill="none" stroke="black" points="57.5,-154 57.5,-206 313.5,-206 313.5,-154 57.5,-154"/>
</g>
<g id="clust7" class="cluster">
<title>cluster_AuthModule</title>
<polygon fill="none" stroke="black" stroke-dasharray="1,5" points="300.5,-70 300.5,-138 446.5,-138 446.5,-70 300.5,-70"/>
</g>
<g id="clust12" class="cluster">
<title>cluster_AuthModule_providers</title>
<polygon fill="none" stroke="black" points="308.5,-78 308.5,-130 438.5,-130 438.5,-78 308.5,-78"/>
</g>
<!-- AuthModule -->
<g id="node1" class="node">
<title>AuthModule</title>
<polygon fill="#8dd3c7" stroke="black" points="417.05,-198 414.05,-202 393.05,-202 390.05,-198 329.95,-198 329.95,-162 417.05,-162 417.05,-198"/>
<text text-anchor="middle" x="373.5" y="-175.8" font-family="Times,serif" font-size="14.00">AuthModule</text>
</g>
<!-- AppModule -->
<g id="node2" class="node">
<title>AppModule</title>
<polygon fill="#8dd3c7" stroke="black" points="321.16,-263 318.16,-267 297.16,-267 294.16,-263 237.84,-263 237.84,-227 321.16,-227 321.16,-263"/>
<text text-anchor="middle" x="279.5" y="-240.8" font-family="Times,serif" font-size="14.00">AppModule</text>
</g>
<!-- AuthModule&#45;&gt;AppModule -->
<g id="edge1" class="edge">
<title>AuthModule&#45;&gt;AppModule</title>
<path fill="none" stroke="black" d="M329.7,-180C319.43,-180 311.41,-180 311.41,-180 311.41,-180 311.41,-216.89 311.41,-216.89"/>
<polygon fill="black" stroke="black" points="307.91,-216.89 311.41,-226.89 314.91,-216.89 307.91,-216.89"/>
</g>
<!-- CurrencyConversionService -->
<g id="node3" class="node">
<title>CurrencyConversionService</title>
<ellipse fill="#fdb462" stroke="black" cx="185.5" cy="-180" rx="120.39" ry="18"/>
<text text-anchor="middle" x="185.5" y="-175.8" font-family="Times,serif" font-size="14.00">CurrencyConversionService</text>
</g>
<!-- CurrencyConversionService&#45;&gt;AppModule -->
<g id="edge2" class="edge">
<title>CurrencyConversionService&#45;&gt;AppModule</title>
<path fill="none" stroke="black" d="M271.81,-192.84C271.81,-192.84 271.81,-216.52 271.81,-216.52"/>
<polygon fill="black" stroke="black" points="268.31,-216.52 271.81,-226.52 275.31,-216.52 268.31,-216.52"/>
</g>
<!-- JwtStrategy -->
<g id="node4" class="node">
<title>JwtStrategy</title>
<ellipse fill="#fdb462" stroke="black" cx="373.5" cy="-104" rx="56.76" ry="18"/>
<text text-anchor="middle" x="373.5" y="-99.8" font-family="Times,serif" font-size="14.00">JwtStrategy</text>
</g>
<!-- JwtStrategy&#45;&gt;AuthModule -->
<g id="edge3" class="edge">
<title>JwtStrategy&#45;&gt;AuthModule</title>
<path fill="none" stroke="black" d="M373.5,-122.01C373.5,-122.01 373.5,-151.85 373.5,-151.85"/>
<polygon fill="black" stroke="black" points="370,-151.85 373.5,-161.85 377,-151.85 370,-151.85"/>
</g>
</g>
</svg>
